<svg width="36" height="29" viewBox="0 0 36 29" fill="none" xmlns="http://www.w3.org/2000/svg">
<path d="M17.5926 28.501C19.5922 28.501 21.5099 27.7503 22.9237 26.4142C24.3377 25.078 25.132 23.2658 25.132 21.3762L25.132 9.50009C25.132 8.24025 25.6616 7.03224 26.6042 6.14147C27.5469 5.25069 28.8254 4.75017 30.1585 4.75017L35.185 4.75017L35.185 8.28698e-05L30.1587 8.30203e-05C27.4926 8.31002e-05 24.9356 1.00094 23.0502 2.78249C21.165 4.56422 20.1059 6.98059 20.1059 9.50009L20.1059 21.3758C20.1059 22.0057 19.841 22.6098 19.3698 23.0553C18.8984 23.5007 18.2592 23.7509 17.5926 23.7509C16.926 23.7509 16.2868 23.5007 15.8155 23.0553C15.3441 22.6098 15.0793 22.0057 15.0793 21.3758L15.0793 9.50009C15.0793 6.98059 14.0202 4.56422 12.1349 2.78249C10.2497 1.00094 7.69268 8.3693e-05 5.02651 8.37728e-05L-1.57539e-06 8.39233e-05L-1.31279e-06 4.75089L5.02651 4.75088C6.35944 4.75088 7.6378 5.25122 8.58039 6.14182C9.52299 7.03242 10.0526 8.24042 10.0528 9.50009L10.0528 21.3758C10.0528 22.3115 10.2478 23.2381 10.6267 24.1026C11.0056 24.9671 11.5609 25.7525 12.2611 26.4142C12.9612 27.0758 13.7924 27.6006 14.7072 27.9587C15.622 28.3167 16.6025 28.501 17.5926 28.501Z" fill="url(#paint0_linear_60_378)"/>
<defs>
<linearGradient id="paint0_linear_60_378" x1="17.5925" y1="33.7166" x2="17.5925" y2="-2.87851" gradientUnits="userSpaceOnUse">
<stop stop-color="#F54A48"/>
<stop offset="1" stop-color="#FA982F"/>
</linearGradient>
</defs>
</svg>
